# xmcd
#
# Track frame offsets: 
#        150
#        10672
#        25222
#        34940
#        48715
#        59187
#        71830
#        85280
#        98547
#        111077
#
# Disc length: 1675 seconds
#
# Revision: 2
# Processed by: cddbd v1.5.1PL0 Copyright (c) Steve Scherf et al.
# Submitted via: ExactAudioCopy v0.95a5
#
DISCID=8606890a
DTITLE=George Jones - Love Songs (1992)
DYEAR=1900
DGENRE=Country
TTITLE0=Her Name Is...
TTITLE1=Memories Of Us
TTITLE2=Kiss An Angel Good Morning
TTITLE3=Loving You Could Never Be Better
TTITLE4=Nothing Hurt Me (Half As Bad As Losing You)
TTITLE5=I'll Share My World With You
TTITLE6=I'm Not Ready Yet
TTITLE7=Good Hearted Woman
TTITLE8=Another Way To Say Goodbye
TTITLE9=He Stopped Loving Her Today
EXTD=
EXTT0=
EXTT1=
EXTT2=
EXTT3=
EXTT4=
EXTT5=
EXTT6=
EXTT7=
EXTT8=
EXTT9=
PLAYORDER=
